<?xml version="1.0" standalone="yes"?>

<svg version="1.1" viewBox="0.0 0.0 973.5774278215223 279.9396325459318" fill="none" stroke="none" stroke-linecap="square" stroke-miterlimit="10" xmlns="http://www.w3.org/2000/svg" xmlns:xlink="http://www.w3.org/1999/xlink"><clipPath id="p.0"><path d="m0 0l973.57745 0l0 279.93964l-973.57745 0l0 -279.93964z" clip-rule="nonzero"></path></clipPath><g clip-path="url(#p.0)"><path fill="#000000" fill-opacity="0.0" d="m0 0l973.57745 0l0 279.93964l-973.57745 0z" fill-rule="evenodd"></path><path fill="#cc0000" d="m835.3985 11.804537l28.762512 0.8278637l18.40924 1.6575956l41.41815 -2.0724611l8.055969 3.313322l19.557861 4.9709187l-3.4510498 7.869375l4.602295 13.6681595l-3.4536743 7.0396423l8.055969 14.081154l-6.904724 5.383915l0 10.76783l-9.204651 7.0415115l13.806946 7.869377l-3.4511108 7.0415115l-9.20459 9.110237l16.10675 7.869377l-4.602295 12.010559l-5.7509155 7.4545135l9.20459 5.385788l0 10.352966l-8.055969 3.313324l1.1512451 9.525101l3.4510498 9.525101l-1.1486206 13.253281l0 13.255173l8.053406 11.595688l-3.4511108 10.352966l-13.806885 7.456375l4.602295 8.282379l-10.355835 8.282364l8.053345 12.42543l-17.257996 1.6575928l-14.955505 4.141205l-17.258057 -1.2427368l-28.765076 -5.7987976l-10.35321 4.1430664l-37.967102 1.2408752l-11.50708 -6.626648l-57.524963 3.313324l-21.86029 3.313324l-27.613892 -7.454529l-28.762451 4.556061l-40.26953 3.72818l-12.655701 -3.313324l-19.557861 3.313324l-51.283264 3.2479248l-47.00464 -5.6941223l-36.325073 1.6164856l-24.160187 -4.141205l-46.02307 4.141205l-33.362183 -2.898468l-49.474182 3.72818l-31.064941 -1.2427368l-40.269547 -3.313324l-48.320328 4.141205l-33.367386 -2.4854736l-28.762482 3.7282104l-46.020477 -2.0706177l-43.720634 0.4130249l-8.053387 -7.867523l-19.557858 -9.112106l9.202008 -7.8693695l-3.4510784 -34.788956l10.355846 -14.0811615l-5.753538 -33.548096l19.557856 -13.668152l-13.804317 -26.091713l11.504467 -12.42543l-8.053387 -29.818039l6.902157 -7.0415115l-14.955545 -20.707798l13.806929 -4.556053l2.2998466 -13.253292l17.258007 -2.483591l3.4510803 -14.49602l60.97864 2.0705929l37.969704 -3.313323l47.610275 3.4628248l50.184235 -3.875822l52.504944 5.428767l44.138306 0.3681469l34.51602 -4.556053l41.418182 1.2427301l34.51602 1.6557264l42.569397 -3.313322l52.925232 4.143055l71.33191 -3.313323l47.17169 2.4835901l78.23663 -2.8984566l50.622803 2.8984566z" fill-rule="evenodd"></path><path stroke="#660000" stroke-width="24.0" stroke-linejoin="round" stroke-linecap="butt" d="m835.3985 11.804537l28.762512 0.8278637l18.40924 1.6575956l41.41815 -2.0724611l8.055969 3.313322l19.557861 4.9709187l-3.4510498 7.869375l4.602295 13.6681595l-3.4536743 7.0396423l8.055969 14.081154l-6.904724 5.383915l0 10.76783l-9.204651 7.0415115l13.806946 7.869377l-3.4511108 7.0415115l-9.20459 9.110237l16.10675 7.869377l-4.602295 12.010559l-5.7509155 7.4545135l9.20459 5.385788l0 10.352966l-8.055969 3.313324l1.1512451 9.525101l3.4510498 9.525101l-1.1486206 13.253281l0 13.255173l8.053406 11.595688l-3.4511108 10.352966l-13.806885 7.456375l4.602295 8.282379l-10.355835 8.282364l8.053345 12.42543l-17.257996 1.6575928l-14.955505 4.141205l-17.258057 -1.2427368l-28.765076 -5.7987976l-10.35321 4.1430664l-37.967102 1.2408752l-11.50708 -6.626648l-57.524963 3.313324l-21.86029 3.313324l-27.613892 -7.454529l-28.762451 4.556061l-40.26953 3.72818l-12.655701 -3.313324l-19.557861 3.313324l-51.283264 3.2479248l-47.00464 -5.6941223l-36.325073 1.6164856l-24.160187 -4.141205l-46.02307 4.141205l-33.362183 -2.898468l-49.474182 3.72818l-31.064941 -1.2427368l-40.269547 -3.313324l-48.320328 4.141205l-33.367386 -2.4854736l-28.762482 3.7282104l-46.020477 -2.0706177l-43.720634 0.4130249l-8.053387 -7.867523l-19.557858 -9.112106l9.202008 -7.8693695l-3.4510784 -34.788956l10.355846 -14.0811615l-5.753538 -33.548096l19.557856 -13.668152l-13.804317 -26.091713l11.504467 -12.42543l-8.053387 -29.818039l6.902157 -7.0415115l-14.955545 -20.707798l13.806929 -4.556053l2.2998466 -13.253292l17.258007 -2.483591l3.4510803 -14.49602l60.97864 2.0705929l37.969704 -3.313323l47.610275 3.4628248l50.184235 -3.875822l52.504944 5.428767l44.138306 0.3681469l34.51602 -4.556053l41.418182 1.2427301l34.51602 1.6557264l42.569397 -3.313322l52.925232 4.143055l71.33191 -3.313323l47.17169 2.4835901l78.23663 -2.8984566l50.622803 2.8984566z" fill-rule="evenodd"></path><path fill="#000000" fill-opacity="0.0" d="m824.1821 19.190834l27.837097 0.78030777l17.816956 1.562376l40.08557 -1.9534111l7.796814 3.1229935l18.928589 4.6853695l-3.3400269 7.417328l4.4542236 12.883007l-3.3425903 6.6352577l7.796814 13.272282l-6.682617 5.074646l0 10.149284l-8.908447 6.6370163l13.362732 7.417328l-3.340088 6.637024l-8.908447 8.586906l15.588562 7.417328l-4.4542236 11.320625l-5.565918 7.026306l8.908447 5.0764008l0 9.758255l-7.796814 3.1229858l1.1141968 8.977951l3.340088 8.977936l-1.1116943 12.491974l0 12.493729l7.7943115 10.929596l-3.340088 9.758255l-13.362671 7.028061l4.4542236 7.806595l-10.022644 7.80661l7.7942505 11.711655l-16.702759 1.5623779l-14.474365 3.903305l-16.702759 -1.1713562l-27.8396 -5.4656677l-10.020142 3.9050598l-36.745544 1.1695862l-11.136841 -6.245987l-55.674133 3.1229858l-21.156982 3.123001l-26.725464 -7.026291l-27.837036 4.294327l-38.973938 3.514038l-12.248535 -3.123001l-18.928589 3.123001l-49.6333 3.0613403l-45.49231 -5.367035l-35.156372 1.5236206l-23.382843 -3.903305l-44.54236 3.903305l-32.288788 -2.731964l-47.882416 3.514038l-30.06543 -1.1713562l-38.973938 -3.1229858l-46.765686 3.9032898l-32.293854 -2.3426666l-27.837067 3.5140228l-44.539833 -1.9516602l-42.313976 0.38928223l-7.794281 -7.415573l-18.928608 -8.588669l8.905945 -7.417328l-3.340046 -32.790543l10.022663 -13.272278l-5.568428 -31.620972l18.928608 -12.882996l-13.36018 -24.59291l11.134327 -11.711662l-7.794281 -28.105179l6.680088 -6.6370163l-14.474369 -19.518269l13.362705 -4.2943344l2.2258568 -12.491974l16.702747 -2.3409233l3.3400497 -13.663313l59.01673 1.9516487l36.748077 -3.1229916l46.078476 3.2639065l48.569595 -3.653181l50.815704 5.1169186l42.7182 0.3469982l33.405518 -4.2943344l40.08557 1.1713428l33.405518 1.5606155l41.1998 -3.1229935l51.222443 3.9050617l69.036865 -3.1229916l45.65399 2.3409233l75.71948 -2.7319584l48.99408 2.7319584z" fill-rule="evenodd"></path><path stroke="#660000" stroke-width="12.0" stroke-linejoin="round" stroke-linecap="butt" stroke-dasharray="12.0,36.0" d="m824.1821 19.190834l27.837097 0.78030777l17.816956 1.562376l40.08557 -1.9534111l7.796814 3.1229935l18.928589 4.6853695l-3.3400269 7.417328l4.4542236 12.883007l-3.3425903 6.6352577l7.796814 13.272282l-6.682617 5.074646l0 10.149284l-8.908447 6.6370163l13.362732 7.417328l-3.340088 6.637024l-8.908447 8.586906l15.588562 7.417328l-4.4542236 11.320625l-5.565918 7.026306l8.908447 5.0764008l0 9.758255l-7.796814 3.1229858l1.1141968 8.977951l3.340088 8.977936l-1.1116943 12.491974l0 12.493729l7.7943115 10.929596l-3.340088 9.758255l-13.362671 7.028061l4.4542236 7.806595l-10.022644 7.80661l7.7942505 11.711655l-16.702759 1.5623779l-14.474365 3.903305l-16.702759 -1.1713562l-27.8396 -5.4656677l-10.020142 3.9050598l-36.745544 1.1695862l-11.136841 -6.245987l-55.674133 3.1229858l-21.156982 3.123001l-26.725464 -7.026291l-27.837036 4.294327l-38.973938 3.514038l-12.248535 -3.123001l-18.928589 3.123001l-49.6333 3.0613403l-45.49231 -5.367035l-35.156372 1.5236206l-23.382843 -3.903305l-44.54236 3.903305l-32.288788 -2.731964l-47.882416 3.514038l-30.06543 -1.1713562l-38.973938 -3.1229858l-46.765686 3.9032898l-32.293854 -2.3426666l-27.837067 3.5140228l-44.539833 -1.9516602l-42.313976 0.38928223l-7.794281 -7.415573l-18.928608 -8.588669l8.905945 -7.417328l-3.340046 -32.790543l10.022663 -13.272278l-5.568428 -31.620972l18.928608 -12.882996l-13.36018 -24.59291l11.134327 -11.711662l-7.794281 -28.105179l6.680088 -6.6370163l-14.474369 -19.518269l13.362705 -4.2943344l2.2258568 -12.491974l16.702747 -2.3409233l3.3400497 -13.663313l59.01673 1.9516487l36.748077 -3.1229916l46.078476 3.2639065l48.569595 -3.653181l50.815704 5.1169186l42.7182 0.3469982l33.405518 -4.2943344l40.08557 1.1713428l33.405518 1.5606155l41.1998 -3.1229935l51.222443 3.9050617l69.036865 -3.1229916l45.65399 2.3409233l75.71948 -2.7319584l48.99408 2.7319584z" fill-rule="evenodd"></path><path fill="#000000" fill-opacity="0.0" d="m735.30316 22.529007c6.819824 -0.54678917 13.821655 -2.2647152 20.157654 -7.746685c2.578247 -2.2307796 4.0838013 -12.552734 6.7181396 -10.652127c8.142822 5.8749723 12.933777 24.440243 19.710693 35.831467c3.1912842 5.364094 8.545288 -2.2492485 12.093933 1.9358025c3.5269165 4.1593323 5.432312 13.269833 8.9591675 17.429169c2.1011963 2.4780197 9.307861 1.3462791 7.166626 -0.966156c-1.6305542 -1.7609673 2.6576538 6.7770424 4.4804077 6.7770424c5.0080566 0 9.824158 4.2781982 14.781799 5.8108826c1.6852417 0.5210037 1.7732544 6.507286 3.1348267 8.7163315c7.265686 11.787674 16.021118 18.962364 24.638 25.179337c1.210083 0.87306213 0.77349854 -5.2799683 1.3439941 -7.746681c1.1833496 -5.11644 4.9957886 -4.034523 7.6151733 -4.844734c4.4093018 -1.3638687 10.780701 15.142815 12.98938 6.780533c1.4144287 -5.3553925 -1.9002686 -17.190216 0.8970337 -18.398811c2.6715088 -1.1542664 6.54834 7.7988586 8.062073 2.9019547c1.2443237 -4.0253754 1.8060913 -12.153778 4.0318604 -11.618286c3.7833862 0.91025543 8.274658 10.111244 11.198486 4.84124c2.706604 -4.8783875 2.7473755 -18.398808 6.27124 -18.398808c4.6503296 0 14.462463 15.838627 10.303101 20.334614c-2.3364258 2.5254822 -5.092224 9.366257 -4.0318604 14.527214c0.7880249 3.8352814 4.0025635 1.8751297 5.3757935 4.84124c2.4752197 5.346199 4.6696777 16.364883 8.063721 14.527214c3.3341064 -1.8052216 9.357422 -8.1143875 10.301453 -0.96964264c0.9748535 7.378044 -0.26586914 18.019371 2.6879272 22.273903" fill-rule="evenodd"></path><path stroke="#660000" stroke-width="3.0" stroke-linejoin="round" stroke-linecap="butt" d="m735.30316 22.529007c6.819824 -0.54678917 13.821655 -2.2647152 20.157654 -7.746685c2.578247 -2.2307796 4.0838013 -12.552734 6.7181396 -10.652127c8.142822 5.8749723 12.933777 24.440243 19.710693 35.831467c3.1912842 5.364094 8.545288 -2.2492485 12.093933 1.9358025c3.5269165 4.1593323 5.432312 13.269833 8.9591675 17.429169c2.1011963 2.4780197 9.307861 1.3462791 7.166626 -0.966156c-1.6305542 -1.7609673 2.6576538 6.7770424 4.4804077 6.7770424c5.0080566 0 9.824158 4.2781982 14.781799 5.8108826c1.6852417 0.5210037 1.7732544 6.507286 3.1348267 8.7163315c7.265686 11.787674 16.021118 18.962364 24.638 25.179337c1.210083 0.87306213 0.77349854 -5.2799683 1.3439941 -7.746681c1.1833496 -5.11644 4.9957886 -4.034523 7.6151733 -4.844734c4.4093018 -1.3638687 10.780701 15.142815 12.98938 6.780533c1.4144287 -5.3553925 -1.9002686 -17.190216 0.8970337 -18.398811c2.6715088 -1.1542664 6.54834 7.7988586 8.062073 2.9019547c1.2443237 -4.0253754 1.8060913 -12.153778 4.0318604 -11.618286c3.7833862 0.91025543 8.274658 10.111244 11.198486 4.84124c2.706604 -4.8783875 2.7473755 -18.398808 6.27124 -18.398808c4.6503296 0 14.462463 15.838627 10.303101 20.334614c-2.3364258 2.5254822 -5.092224 9.366257 -4.0318604 14.527214c0.7880249 3.8352814 4.0025635 1.8751297 5.3757935 4.84124c2.4752197 5.346199 4.6696777 16.364883 8.063721 14.527214c3.3341064 -1.8052216 9.357422 -8.1143875 10.301453 -0.96964264c0.9748535 7.378044 -0.26586914 18.019371 2.6879272 22.273903" fill-rule="evenodd"></path><path fill="#000000" fill-opacity="0.0" d="m135.99434 257.4741c5.9906616 -8.67363 11.697128 -17.39566 18.375427 -25.980118c0.29273987 -0.37628174 -0.5689697 0.85095215 -0.42167664 1.1319122c1.5838013 3.0210419 3.137741 6.1434174 5.9468994 8.379456c0.63438416 0.5049591 0.18989563 -1.7563629 0.63082886 -2.6820679c1.0948792 -2.2985535 2.6485138 -4.780655 5.0256042 -6.8459625c0.6336365 -0.55052185 0.96014404 1.073822 0.25187683 1.570343c-1.0214844 0.716095 -2.2585144 1.2670898 -2.285675 0.47702026c-0.030288696 -0.8815155 0.9550934 -1.1355133 2.2461243 -1.6282501c3.2429504 -1.2377319 7.625412 -0.8023834 9.756302 -3.1974182c0.66752625 -0.7502594 -2.3921814 -0.6190796 -1.5580597 -1.2970886c0.7677307 -0.62402344 0.55592346 0.33714294 1.0766907 0.7024536c3.7768402 2.6493073 6.1860657 6.580078 11.326096 7.9514465c0.7563019 0.20178223 -0.08052063 -1.3733215 0.18971252 -2.1260529c0.814682 -2.2691803 1.1801453 -4.5758667 2.8545685 -6.8563538c5.5632935 -7.5769043 18.338074 -12.134018 25.64618 -19.268417c1.1538086 -1.1263885 -2.2669373 2.7404633 -1.782608 3.6182556c2.0763245 3.7632294 2.001419 3.909912 5.752228 6.565857c1.13414 0.8030853 -2.1878357 -1.9340363 -1.8293762 -3.4433289c0.7239075 -3.0480347 5.940689 -6.586914 10.038284 -8.356903c1.2884827 -0.55656433 -4.3381805 -4.7097473 0.33415222 5.8420715c0.61906433 1.3980408 3.3010254 -3.5068054 4.8162384 -5.294937c1.1523743 -1.3599396 3.6425629 -0.8981018 5.473236 -1.4910736c3.1119537 -1.0079651 6.2500305 -2.0011292 9.315186 -2.6413727" fill-rule="evenodd"></path><path stroke="#660000" stroke-width="3.0" stroke-linejoin="round" stroke-linecap="butt" d="m135.99434 257.4741c5.9906616 -8.67363 11.697128 -17.39566 18.375427 -25.980118c0.29273987 -0.37628174 -0.5689697 0.85095215 -0.42167664 1.1319122c1.5838013 3.0210419 3.137741 6.1434174 5.9468994 8.379456c0.63438416 0.5049591 0.18989563 -1.7563629 0.63082886 -2.6820679c1.0948792 -2.2985535 2.6485138 -4.780655 5.0256042 -6.8459625c0.6336365 -0.55052185 0.96014404 1.073822 0.25187683 1.570343c-1.0214844 0.716095 -2.2585144 1.2670898 -2.285675 0.47702026c-0.030288696 -0.8815155 0.9550934 -1.1355133 2.2461243 -1.6282501c3.2429504 -1.2377319 7.625412 -0.8023834 9.756302 -3.1974182c0.66752625 -0.7502594 -2.3921814 -0.6190796 -1.5580597 -1.2970886c0.7677307 -0.62402344 0.55592346 0.33714294 1.0766907 0.7024536c3.7768402 2.6493073 6.1860657 6.580078 11.326096 7.9514465c0.7563019 0.20178223 -0.08052063 -1.3733215 0.18971252 -2.1260529c0.814682 -2.2691803 1.1801453 -4.5758667 2.8545685 -6.8563538c5.5632935 -7.5769043 18.338074 -12.134018 25.64618 -19.268417c1.1538086 -1.1263885 -2.2669373 2.7404633 -1.782608 3.6182556c2.0763245 3.7632294 2.001419 3.909912 5.752228 6.565857c1.13414 0.8030853 -2.1878357 -1.9340363 -1.8293762 -3.4433289c0.7239075 -3.0480347 5.940689 -6.586914 10.038284 -8.356903c1.2884827 -0.55656433 -4.3381805 -4.7097473 0.33415222 5.8420715c0.61906433 1.3980408 3.3010254 -3.5068054 4.8162384 -5.294937c1.1523743 -1.3599396 3.6425629 -0.8981018 5.473236 -1.4910736c3.1119537 -1.0079651 6.2500305 -2.0011292 9.315186 -2.6413727" fill-rule="evenodd"></path><path fill="#000000" fill-opacity="0.0" d="m153.79198 231.96007c-6.2267303 -12.616837 -27.642662 -46.99872 -31.300224 -35.89763c-0.31100464 0.94395447 3.1421814 0.60687256 4.515976 0.44177246c18.755272 -2.253952 36.12365 -8.247589 56.72207 -6.0123444c0.9673462 0.10498047 -1.714325 0.36532593 -2.2548523 0.8046875c-0.6809845 0.55352783 -1.7820587 -1.5120544 -2.7295074 -2.2357483c-10.524307 -8.038742 -20.099823 -17.978516 -33.36885 -22.908035c-1.0938416 -0.4063568 2.9242096 0.9362793 2.9622498 1.7046967c0.043670654 0.88253784 -0.7814026 0.5756073 -1.8665466 0.8309479c-6.4696045 1.5223236 -26.429276 1.2803802 -19.289436 4.7140503c3.1038437 1.492691 0.38033295 -4.4464264 0.60556793 -6.66098c0.057434082 -0.5647125 4.8808746 -6.550247 4.1836853 -7.513138c-2.495926 -3.4471283 -10.514656 -3.2329712 -14.180214 -6.292633c-6.4541473 -5.3872986 -2.906479 -14.296036 3.614914 -16.988953" fill-rule="evenodd"></path><path stroke="#660000" stroke-width="3.0" stroke-linejoin="round" stroke-linecap="butt" d="m153.79198 231.96007c-6.2267303 -12.616837 -27.642662 -46.99872 -31.300224 -35.89763c-0.31100464 0.94395447 3.1421814 0.60687256 4.515976 0.44177246c18.755272 -2.253952 36.12365 -8.247589 56.72207 -6.0123444c0.9673462 0.10498047 -1.714325 0.36532593 -2.2548523 0.8046875c-0.6809845 0.55352783 -1.7820587 -1.5120544 -2.7295074 -2.2357483c-10.524307 -8.038742 -20.099823 -17.978516 -33.36885 -22.908035c-1.0938416 -0.4063568 2.9242096 0.9362793 2.9622498 1.7046967c0.043670654 0.88253784 -0.7814026 0.5756073 -1.8665466 0.8309479c-6.4696045 1.5223236 -26.429276 1.2803802 -19.289436 4.7140503c3.1038437 1.492691 0.38033295 -4.4464264 0.60556793 -6.66098c0.057434082 -0.5647125 4.8808746 -6.550247 4.1836853 -7.513138c-2.495926 -3.4471283 -10.514656 -3.2329712 -14.180214 -6.292633c-6.4541473 -5.3872986 -2.906479 -14.296036 3.614914 -16.988953" fill-rule="evenodd"></path><path fill="#000000" fill-opacity="0.0" d="m383.2461 17.652729c-3.054596 2.8067055 -11.671478 -0.68473434 -16.825317 0.15929794c-2.5190735 0.41254234 4.576172 8.043892 2.2173767 6.327162c-1.484375 -1.0803261 -2.286377 0.22852516 -3.127533 0.20419884c-2.514801 -0.0727272 -3.041809 2.5721474 -2.770996 4.4336147c0.27078247 1.861414 4.2286377 4.3543797 3.0694885 5.707117c-1.0975342 1.2808037 -5.8223267 -1.6324043 -7.2708435 -0.5783806c-1.6892395 1.2292061 2.3736572 4.4512444 1.8092041 6.278492c-0.3666687 1.1870613 -3.3759155 0.43740082 -4.729126 1.0239525c-2.135437 0.9256058 0.92858887 4.2842865 0.82366943 6.305519c-0.047943115 0.92352676 -2.5822449 -1.2494965 -3.9353943 -1.6239738c-1.4013367 -0.38781357 0.6713562 2.2731743 -0.14807129 2.8694496c-0.36383057 0.26474 -0.04638672 -0.96092224 -0.5037842 -1.3593407c-1.5971375 -1.391243 -4.4048767 -1.2202415 -6.448303 -2.212677c-2.363861 -1.1480598 -2.848236 -2.0708466 -3.4246216 -1.9956474c-1.2546997 0.1637001 -0.18276978 2.2636147 -1.4379578 2.4265785c-1.0090942 0.13101196 -0.8296814 -2.3524857 -1.927063 -2.395237c-3.4702148 -0.13518143 -7.125702 1.8287315 -6.5433655 4.416912c0.27523804 1.223278 -3.7564392 -1.8919373 -5.0924377 -1.473381c-0.16781616 0.052570343 -4.2148743 8.941914 -4.08255 9.184227c0.879303 1.6103668 -0.78082275 3.0541916 0.2524414 4.649578c0.44631958 0.689106 2.0998535 1.7120209 1.4529114 2.0501442c-3.0662842 1.6026688 -10.4722595 1.0594292 -9.737701 4.32407c0.39331055 1.7480774 6.828705 2.9643173 5.929901 4.3158035c-0.7279968 1.0946426 -2.188568 3.2036133 -0.2885437 4.0074463c2.0213013 0.8551483 7.5760803 1.7687454 6.107605 2.4606094c-2.5984497 1.2242508 -9.364838 1.616333 -7.1884155 4.1949387" fill-rule="evenodd"></path><path stroke="#660000" stroke-width="3.0" stroke-linejoin="round" stroke-linecap="butt" d="m383.2461 17.652729c-3.054596 2.8067055 -11.671478 -0.68473434 -16.825317 0.15929794c-2.5190735 0.41254234 4.576172 8.043892 2.2173767 6.327162c-1.484375 -1.0803261 -2.286377 0.22852516 -3.127533 0.20419884c-2.514801 -0.0727272 -3.041809 2.5721474 -2.770996 4.4336147c0.27078247 1.861414 4.2286377 4.3543797 3.0694885 5.707117c-1.0975342 1.2808037 -5.8223267 -1.6324043 -7.2708435 -0.5783806c-1.6892395 1.2292061 2.3736572 4.4512444 1.8092041 6.278492c-0.3666687 1.1870613 -3.3759155 0.43740082 -4.729126 1.0239525c-2.135437 0.9256058 0.92858887 4.2842865 0.82366943 6.305519c-0.047943115 0.92352676 -2.5822449 -1.2494965 -3.9353943 -1.6239738c-1.4013367 -0.38781357 0.6713562 2.2731743 -0.14807129 2.8694496c-0.36383057 0.26474 -0.04638672 -0.96092224 -0.5037842 -1.3593407c-1.5971375 -1.391243 -4.4048767 -1.2202415 -6.448303 -2.212677c-2.363861 -1.1480598 -2.848236 -2.0708466 -3.4246216 -1.9956474c-1.2546997 0.1637001 -0.18276978 2.2636147 -1.4379578 2.4265785c-1.0090942 0.13101196 -0.8296814 -2.3524857 -1.927063 -2.395237c-3.4702148 -0.13518143 -7.125702 1.8287315 -6.5433655 4.416912c0.27523804 1.223278 -3.7564392 -1.8919373 -5.0924377 -1.473381c-0.16781616 0.052570343 -4.2148743 8.941914 -4.08255 9.184227c0.879303 1.6103668 -0.78082275 3.0541916 0.2524414 4.649578c0.44631958 0.689106 2.0998535 1.7120209 1.4529114 2.0501442c-3.0662842 1.6026688 -10.4722595 1.0594292 -9.737701 4.32407c0.39331055 1.7480774 6.828705 2.9643173 5.929901 4.3158035c-0.7279968 1.0946426 -2.188568 3.2036133 -0.2885437 4.0074463c2.0213013 0.8551483 7.5760803 1.7687454 6.107605 2.4606094c-2.5984497 1.2242508 -9.364838 1.616333 -7.1884155 4.1949387" fill-rule="evenodd"></path></g></svg>

